<svg width="29" height="28" viewBox="0 0 29 28" fill="none" xmlns="http://www.w3.org/2000/svg">
<path d="M23.1636 7.65789C21.5701 6.89053 19.8614 6.32516 18.0749 6.00136C18.0424 5.99511 18.0099 6.01073 17.9931 6.04196C17.7733 6.45218 17.5299 6.98735 17.3595 7.40799C15.4379 7.10606 13.5262 7.10606 11.6441 7.40799C11.4736 6.978 11.2213 6.45218 11.0006 6.04196C10.9838 6.01177 10.9513 5.99615 10.9188 6.00136C9.13324 6.32413 7.42454 6.88949 5.83014 7.65789C5.81634 7.66414 5.80451 7.67456 5.79666 7.68808C2.55562 12.7701 1.66776 17.7273 2.10331 22.6229C2.10528 22.6469 2.11809 22.6698 2.13583 22.6843C4.27418 24.3325 6.34553 25.3331 8.37842 25.9964C8.41095 26.0068 8.44542 25.9943 8.46613 25.9662C8.94701 25.2769 9.37567 24.5502 9.7432 23.7859C9.76489 23.7412 9.74419 23.688 9.69986 23.6703C9.01993 23.3996 8.3725 23.0696 7.74972 22.6948C7.70046 22.6646 7.69651 22.5906 7.74183 22.5552C7.87289 22.4521 8.00398 22.3449 8.12912 22.2366C8.15176 22.2168 8.18331 22.2127 8.20993 22.2252C12.3013 24.1857 16.7308 24.1857 20.7739 22.2252C20.8005 22.2116 20.8321 22.2158 20.8557 22.2356C20.9809 22.3439 21.1119 22.4521 21.244 22.5552C21.2893 22.5906 21.2863 22.6646 21.2371 22.6948C20.6143 23.0769 19.9669 23.3996 19.2859 23.6693C19.2416 23.687 19.2219 23.7412 19.2436 23.7859C19.619 24.5491 20.0477 25.2759 20.5197 25.9651C20.5394 25.9943 20.5749 26.0068 20.6074 25.9964C22.6501 25.3331 24.7215 24.3325 26.8598 22.6843C26.8786 22.6698 26.8904 22.6479 26.8924 22.624C27.4136 16.964 26.0193 12.0476 23.1961 7.68912C23.1892 7.67456 23.1774 7.66414 23.1636 7.65789ZM10.3542 19.642C9.12239 19.642 8.10743 18.455 8.10743 16.9974C8.10743 15.5397 9.10271 14.3528 10.3542 14.3528C11.6155 14.3528 12.6206 15.5501 12.6009 16.9974C12.6009 18.455 11.6056 19.642 10.3542 19.642ZM18.6612 19.642C17.4294 19.642 16.4145 18.455 16.4145 16.9974C16.4145 15.5397 17.4097 14.3528 18.6612 14.3528C19.9225 14.3528 20.9276 15.5501 20.908 16.9974C20.908 18.455 19.9225 19.642 18.6612 19.642Z" fill="white"/>
</svg>
