<svg width="29" height="28" viewBox="0 0 29 28" fill="none" xmlns="http://www.w3.org/2000/svg">
<path d="M27 6.39613C26.098 6.79671 25.1441 7.06152 24.168 7.18232C25.1978 6.55254 25.9695 5.56178 26.34 4.39383C25.3723 4.98354 24.3129 5.39903 23.208 5.62224C22.4695 4.80236 21.486 4.25661 20.4118 4.07057C19.3376 3.88454 18.2335 4.06874 17.2725 4.59429C16.3116 5.11984 15.5483 5.95702 15.1023 6.97451C14.6563 7.99201 14.5528 9.13228 14.808 10.2165C12.8513 10.1152 10.9373 9.59363 9.19039 8.68572C7.44344 7.77781 5.90262 6.50386 4.668 4.94661C4.23497 5.72072 4.00742 6.59738 4.008 7.48942C4.00646 8.31784 4.20506 9.13379 4.58611 9.86463C4.96715 10.5955 5.51882 11.2185 6.192 11.6783C5.40957 11.6565 4.64386 11.4416 3.96 11.0518V11.1132C3.96586 12.2739 4.36319 13.3969 5.08478 14.2923C5.80636 15.1877 6.80791 15.8004 7.92 16.0269C7.49191 16.1602 7.04745 16.2305 6.6 16.2357C6.29027 16.232 5.98131 16.2032 5.676 16.1497C5.99269 17.1482 6.60555 18.0207 7.42929 18.646C8.25303 19.2713 9.24669 19.6182 10.272 19.6384C8.54064 21.033 6.40306 21.7941 4.2 21.8004C3.79888 21.8017 3.39808 21.7771 3 21.7267C5.24931 23.2134 7.87058 24.0026 10.548 23.9992C12.3956 24.0189 14.2286 23.6614 15.9397 22.9478C17.6509 22.2342 19.206 21.1787 20.5142 19.8429C21.8225 18.5072 22.8576 16.9179 23.5591 15.1681C24.2606 13.4182 24.6144 11.5428 24.6 9.65142C24.6 9.44259 24.6 9.22147 24.6 9.00036C25.5416 8.28151 26.3538 7.40027 27 6.39613Z" fill="white"/>
</svg>
