<svg width="16" height="16" viewBox="0 0 16 16" fill="none" xmlns="http://www.w3.org/2000/svg">
<path fill-rule="evenodd" clip-rule="evenodd" d="M13.7536 3.70711C14.1441 3.31658 14.1441 2.68342 13.7536 2.29289C13.3631 1.90237 12.7299 1.90237 12.3394 2.29289L8.02326 6.60904L3.70711 2.29289C3.31658 1.90237 2.68342 1.90237 2.29289 2.29289C1.90237 2.68342 1.90237 3.31658 2.29289 3.70711L6.60904 8.02326L2.29289 12.3394C1.90237 12.7299 1.90237 13.3631 2.29289 13.7536C2.68342 14.1441 3.31658 14.1441 3.70711 13.7536L8.02326 9.43747L12.3394 13.7536C12.7299 14.1441 13.3631 14.1441 13.7536 13.7536C14.1441 13.3631 14.1441 12.7299 13.7536 12.3394L9.43747 8.02326L13.7536 3.70711Z" fill="#787C82"/>
</svg>
