<svg width="6" height="10" viewBox="0 0 6 10" fill="none" xmlns="http://www.w3.org/2000/svg">
    <path d="M5.72069 9.7194C5.89958 9.54166 6 9.30123 6 9.05062C6 8.80001 5.89958 8.55958 5.72069 8.38184L2.32043 4.97628L5.72069 1.61816C5.89959 1.44042 6 1.19999 6 0.94938C6 0.698767 5.89959 0.458337 5.72069 0.280601C5.63139 0.191688 5.52516 0.121116 5.40811 0.0729554C5.29106 0.0247951 5.16552 -3.64765e-08 5.03871 -4.20191e-08C4.91191 -4.75617e-08 4.78637 0.0247951 4.66932 0.0729554C4.55227 0.121116 4.44604 0.191688 4.35674 0.280601L0.284121 4.30276C0.194093 4.39095 0.122636 4.49587 0.0738714 4.61147C0.0251067 4.72706 2.64791e-07 4.85105 2.59317e-07 4.97628C2.53843e-07 5.10151 0.0251067 5.2255 0.0738714 5.3411C0.122636 5.4567 0.194093 5.56162 0.284121 5.64981L4.35674 9.7194C4.44604 9.80831 4.55227 9.87888 4.66932 9.92704C4.78637 9.9752 4.91191 10 5.03871 10C5.16551 10 5.29106 9.9752 5.40811 9.92704C5.52516 9.87888 5.63139 9.80831 5.72069 9.7194Z" fill="#F8FAFE"/>
</svg>
