<?xml version="1.0" encoding="UTF-8"?>
<svg
    width="14"
    height="14"
    viewBox="0 0 14 14"
    fill="none"
    xmlns="http://www.w3.org/2000/svg">
    <path
        d="M12.9999 6.76392V12.9999C12.9999 13.1767 12.9297 13.3463 12.8047 13.4713C12.6796 13.5963 12.5101 13.6666 12.3333 13.6666H1.66659C1.48978 13.6666 1.32021 13.5963 1.19518 13.4713C1.07016 13.3463 0.999922 13.1767 0.999922 12.9999V6.76392C0.569466 6.27723 0.33229 5.64966 0.333255 4.99992V0.999919C0.333255 0.823108 0.403493 0.653538 0.528517 0.528514C0.653541 0.40349 0.823111 0.333252 0.999922 0.333252H12.9999C13.1767 0.333252 13.3463 0.40349 13.4713 0.528514C13.5963 0.653538 13.6666 0.823108 13.6666 0.999919V4.99992C13.6666 5.67592 13.4146 6.29325 12.9999 6.76392ZM8.33325 4.99992C8.33325 4.82311 8.40349 4.65354 8.52852 4.52851C8.65354 4.40349 8.82311 4.33325 8.99992 4.33325C9.17673 4.33325 9.3463 4.40349 9.47133 4.52851C9.59635 4.65354 9.66659 4.82311 9.66659 4.99992C9.66659 5.35354 9.80706 5.69268 10.0571 5.94273C10.3072 6.19278 10.6463 6.33325 10.9999 6.33325C11.3535 6.33325 11.6927 6.19278 11.9427 5.94273C12.1928 5.69268 12.3333 5.35354 12.3333 4.99992V1.66659H1.66659V4.99992C1.66659 5.35354 1.80706 5.69268 2.05711 5.94273C2.30716 6.19278 2.6463 6.33325 2.99992 6.33325C3.35354 6.33325 3.69268 6.19278 3.94273 5.94273C4.19278 5.69268 4.33325 5.35354 4.33325 4.99992C4.33325 4.82311 4.40349 4.65354 4.52852 4.52851C4.65354 4.40349 4.82311 4.33325 4.99992 4.33325C5.17673 4.33325 5.3463 4.40349 5.47133 4.52851C5.59635 4.65354 5.66659 4.82311 5.66659 4.99992C5.66659 5.35354 5.80706 5.69268 6.05711 5.94273C6.30716 6.19278 6.6463 6.33325 6.99992 6.33325C7.35354 6.33325 7.69268 6.19278 7.94273 5.94273C8.19278 5.69268 8.33325 5.35354 8.33325 4.99992Z"
        fill="black"/>
</svg>