<svg width="17" height="16" viewBox="0 0 17 16" fill="none" xmlns="http://www.w3.org/2000/svg">
<g clip-path="url(#clip0)">
<path d="M6.973 14.0581C6.80115 12.3457 5.78853 11.0786 3.9624 10.292C3.02731 9.88926 2.11125 9.71888 1.59334 9.64941C1.54525 9.98132 1.50865 10.3218 1.48397 10.6707L1.4519 11.128L1.90837 11.1705C2.7689 11.2507 4.64956 11.6533 4.96997 12.3857C5.04094 12.548 5.11278 12.7304 5.18878 12.9236C5.4414 13.5655 5.72775 14.2931 6.20865 14.8913C6.437 15.1754 6.69225 15.4051 6.973 15.5804V14.0581Z" fill="#F8FAFE"/>
<path d="M14.1176 5.82853C16.0772 4.02737 15.2308 0.741875 15.1922 0.597281L15.033 0L10.5676 2.63862L10.5829 2.66447C9.24413 2.14603 7.75544 2.14606 6.41669 2.66447L6.43197 2.63862L1.96663 0L1.80732 0.597312C1.76879 0.741906 0.922286 4.02741 2.88191 5.82856C2.85066 5.88131 2.81954 5.93425 2.78929 5.98787C2.33022 6.80166 1.98691 7.71794 1.76216 8.72606C2.34779 8.80709 3.32485 8.99691 4.33319 9.43125C6.41829 10.3293 7.64494 11.8481 7.89048 13.8296H9.10894C9.35229 11.8508 10.5393 10.333 12.5511 9.43378C13.649 8.94312 14.708 8.7635 15.2316 8.70047C15.0067 7.70247 14.6654 6.79475 14.2103 5.98784C14.18 5.93419 14.1489 5.88131 14.1176 5.82853ZM6.63685 9.4675L5.55547 8.38175L6.21982 7.72006L7.30119 8.80581L6.63685 9.4675ZM10.3482 9.4675L9.68382 8.80584L10.7652 7.72009L11.4295 8.38175L10.3482 9.4675Z" fill="#F8FAFE"/>
<path d="M15.5159 10.6709C15.4907 10.3133 15.4528 9.96466 15.4029 9.625C14.9682 9.67444 13.9455 9.83309 12.9103 10.3002C11.1678 11.0867 10.1979 12.351 10.0269 14.0582V15.5806C10.3076 15.4053 10.5629 15.1756 10.7912 14.8915C11.2722 14.2932 11.5585 13.5657 11.8111 12.9237C11.8871 12.7306 11.9589 12.5482 12.0299 12.3859C12.3503 11.6535 14.2309 11.251 15.0913 11.1708L15.5483 11.1287L15.5159 10.6709Z" fill="#F8FAFE"/>
<path d="M7.91064 15.9464C8.09927 15.9823 8.29577 16.0003 8.49989 16.0003C8.70402 16.0003 8.90049 15.9823 9.08911 15.9464V14.7676H7.91064V15.9464Z" fill="#F8FAFE"/>
</g>
<defs>
<clipPath id="clip0">
<rect width="16" height="16" fill="white" transform="translate(0.5)"/>
</clipPath>
</defs>
</svg>
