<svg width="16" height="16" viewBox="0 0 16 16" fill="none" xmlns="http://www.w3.org/2000/svg">
<path fill-rule="evenodd" clip-rule="evenodd" d="M8.66669 8.66699V12.667C8.66669 12.8438 8.59645 13.0134 8.47142 13.1384C8.3464 13.2634 8.17683 13.3337 8.00002 13.3337C7.82321 13.3337 7.65364 13.2634 7.52861 13.1384C7.40359 13.0134 7.33335 12.8438 7.33335 12.667V8.66699H3.33335C3.15654 8.66699 2.98697 8.59675 2.86195 8.47173C2.73693 8.34671 2.66669 8.17714 2.66669 8.00033C2.66669 7.82351 2.73693 7.65395 2.86195 7.52892C2.98697 7.4039 3.15654 7.33366 3.33335 7.33366H7.33335V3.33366C7.33335 3.15685 7.40359 2.98728 7.52862 2.86225C7.65364 2.73723 7.82321 2.66699 8.00002 2.66699C8.17683 2.66699 8.3464 2.73723 8.47142 2.86225C8.59645 2.98728 8.66669 3.15685 8.66669 3.33366V7.33366H12.6667C12.8435 7.33366 13.0131 7.4039 13.1381 7.52892C13.2631 7.65395 13.3334 7.82351 13.3334 8.00033C13.3334 8.17714 13.2631 8.34671 13.1381 8.47173C13.0131 8.59675 12.8435 8.66699 12.6667 8.66699H8.66669Z" fill="#A1A3A8"/>
</svg>
