<svg width="8" height="10" viewBox="0 0 8 10" fill="none" xmlns="http://www.w3.org/2000/svg">
<path d="M1.09798 9.53082C0.907158 9.36019 0.800049 9.12938 0.800049 8.88879C0.800049 8.6482 0.907158 8.41739 1.09798 8.24676L4.72492 4.97743L1.09798 1.75363C0.907158 1.583 0.800049 1.35219 0.800049 1.1116C0.800049 0.871012 0.907158 0.640199 1.09798 0.469572C1.19323 0.384216 1.30655 0.316466 1.4314 0.270233C1.55625 0.223999 1.69017 0.200195 1.82542 0.200195C1.96067 0.200195 2.09459 0.223999 2.21944 0.270232C2.34429 0.316466 2.45761 0.384216 2.55286 0.469572L6.89699 4.33085C6.99302 4.41551 7.06924 4.51623 7.12125 4.6272C7.17327 4.73818 7.20005 4.85721 7.20005 4.97743C7.20005 5.09765 7.17327 5.21668 7.12125 5.32765C7.06924 5.43863 6.99302 5.53935 6.89699 5.62401L2.55286 9.53082C2.45761 9.61617 2.34429 9.68392 2.21944 9.73016C2.09459 9.77639 1.96067 9.8002 1.82542 9.8002C1.69017 9.8002 1.55625 9.77639 1.4314 9.73016C1.30655 9.68392 1.19323 9.61617 1.09798 9.53082Z" fill="#A1A3A8"/>
</svg>
