<svg xmlns="http://www.w3.org/2000/svg" fill="none" viewBox="0 0 6 10">
  <path d="M5.72069 9.7194C5.89958 9.54166 6 9.30123 6 9.05062c0-.25061-.10042-.49104-.27931-.66878L2.32043 4.97628l3.40026-3.35812C5.89959 1.44042 6 1.19999 6 .94938c0-.250613-.10041-.491043-.27931-.668779-.0893-.088913-.19553-.159485-.31258-.2076456C5.29106.0247951 5.16552-4e-8 5.03871-4e-8c-.1268 0-.25234.02479514-.36939.07295544-.11705.0481606-.22328.1187326-.31258.2076456L.284121 4.30276c-.090028.08819-.161485.19311-.2102496.30871-.0487647.11559-.07387114.23958-.07387114.36481 0 .12523.02510644.24922.07387114.36482.0487646.1156.1202216.22052.2102496.30871L4.35674 9.7194c.0893.08891.19553.15948.31258.20764.11705.04816.24259.07296.36939.07296s.25235-.0248.3694-.07296c.11705-.04816.22328-.11873.31258-.20764Z"/>
</svg>
