<svg xmlns="http://www.w3.org/2000/svg" fill="none" viewBox="0 0 16 16">
  <path d="M8.66669 8.66699V12.667c0 .1768-.07024.3464-.19527.4714-.12502.125-.29459.1953-.4714.1953-.17681 0-.34638-.0703-.47141-.1953-.12502-.125-.19526-.2946-.19526-.4714V8.66699h-4c-.17681 0-.34638-.07024-.4714-.19526-.12502-.12502-.19526-.29459-.19526-.4714 0-.17682.07024-.34638.19526-.47141.12502-.12502.29459-.19526.4714-.19526h4v-4c0-.17681.07024-.34638.19527-.47141.12502-.12502.29459-.19526.4714-.19526.17681 0 .34638.07024.4714.19526.12503.12503.19527.2946.19527.47141v4h4.00001c.1768 0 .3464.07024.4714.19526.125.12503.1953.29459.1953.47141 0 .17681-.0703.34638-.1953.4714-.125.12502-.2946.19526-.4714.19526H8.66669Z" clip-rule="evenodd"/>
</svg>
