<svg xmlns="http://www.w3.org/2000/svg" fill="none" viewBox="0 0 14 14">
  <path d="m13.4733 12.5267-2.4734-2.4533c.9601-1.19707 1.425-2.71648 1.2992-4.24581-.1258-1.52933-.8327-2.95234-1.9755-3.97644C9.18085.827062 7.68914.279732 6.15522.321705 4.62129.363679 3.16175.991766 2.0767 2.07682.991644 3.16187.363557 4.62142.321583 6.15534.27961 7.68926.82694 9.18097 1.85103 10.3237c1.02409 1.1428 2.44711 1.8498 3.97644 1.9756 1.52933.1258 3.04874-.3392 4.24583-1.2992l2.4533 2.4533c.062.0625.1357.1121.217.1459.0812.0339.1683.0513.2563.0513.088 0 .1752-.0174.2564-.0513.0813-.0338.155-.0834.217-.1459.1201-.1243.1873-.2904.1873-.4633s-.0672-.3391-.1873-.4634Zm-7.14003-1.5266c-.92298 0-1.82523-.2737-2.59266-.7865-.76743-.5128-1.36557-1.24163-1.71878-2.09435-.35321-.85272-.44562-1.79104-.26556-2.69628.18007-.90524.62452-1.73677 1.27717-2.38941.65264-.65265 1.48416-1.0971 2.38941-1.27717.90524-.18006 1.84355-.08765 2.69628.26556.85272.35321 1.58155.95135 2.09437 1.71878.5127.76743.7864 1.66968.7864 2.59266 0 1.23768-.4916 2.42466-1.3668 3.29983-.87517.87518-2.06215 1.36688-3.29983 1.36688Z"/>
</svg>
